<svg xmlns="http://www.w3.org/2000/svg" viewBox="0 0 24 24" fill="currentColor" aria-hidden="true">
  <!-- Cairn icon set · Birthday or anniversary — gift.
       Single-colour: the centre gap between the left/right halves
       reads as the vertical ribbon; two symmetric teardrop loops
       form the bow. Rounded corners match the set's pebble feel. -->
  <path d="M11.1 6.7C10.4 5 9.2 3.7 7.8 3.3c-1-.3-1.9.1-2.2.9-.4 1 .2 2.1 1 2.7 1 .75 2.5 1.05 4.5 1.05z"/>
  <path d="M12.9 6.7c.7-1.7 1.9-3 3.3-3.4 1-.3 1.9.1 2.2.9.4 1-.2 2.1-1 2.7-1 .75-2.5 1.05-4.5 1.05z"/>
  <rect x="3" y="8" width="8.1" height="3.5" rx="1"/>
  <rect x="12.9" y="8" width="8.1" height="3.5" rx="1"/>
  <rect x="4.1" y="11.7" width="7" height="9.1" rx="1.4"/>
  <rect x="12.9" y="11.7" width="7" height="9.1" rx="1.4"/>
</svg>
